<?xml version="1.0" encoding="UTF-8" standalone="no"?>
<!DOCTYPE svg PUBLIC "-//W3C//DTD SVG 1.0//EN" "http://www.w3.org/TR/2001/PR-SVG-20010719/DTD/svg10.dtd">
<svg width="53cm" height="73cm" viewBox="-156 230 1042 1443" xmlns="http://www.w3.org/2000/svg" xmlns:xlink="http://www.w3.org/1999/xlink">
  <g id="Background">
    <g>
      <rect style="fill: #ffffff; fill-opacity: 1; stroke-opacity: 1; stroke-width: 2; stroke: #000000" x="510.3" y="234" width="83.4" height="38" rx="0" ry="0"/>
      <text font-size="12.8" style="fill: #000000; fill-opacity: 1; stroke: none;text-anchor:middle;font-family:sans-serif;font-style:normal;font-weight:normal" x="552" y="256.9">
        <tspan x="552" y="256.9">Open site</tspan>
      </text>
    </g>
    <g>
      <rect style="fill: #ffffff; fill-opacity: 1; stroke-opacity: 1; stroke-width: 2; stroke: #000000" x="343.7" y="232" width="56.6" height="38" rx="0" ry="0"/>
      <text font-size="12.8" style="fill: #000000; fill-opacity: 1; stroke: none;text-anchor:middle;font-family:sans-serif;font-style:normal;font-weight:normal" x="372" y="254.9">
        <tspan x="372" y="254.9">Login</tspan>
      </text>
    </g>
    <g>
      <polygon style="fill: #ffffff; fill-opacity: 1; stroke-opacity: 1; stroke-width: 2; stroke: #000000" fill-rule="evenodd" points="373,324.63 445.738,360.999 373,397.368 300.262,360.999 "/>
      <text font-size="12.8" style="fill: #000000; fill-opacity: 1; stroke: none;text-anchor:middle;font-family:sans-serif;font-style:normal;font-weight:normal" x="373" y="364.899">
        <tspan x="373" y="364.899">Is logged?</tspan>
      </text>
    </g>
    <g>
      <line style="fill: none; stroke-opacity: 1; stroke-width: 2; stroke: #000000" x1="509.373" y1="252.526" x2="411.025" y2="251.434"/>
      <polygon style="fill: #000000; fill-opacity: 1; stroke-opacity: 1; stroke-width: 2; stroke: #000000" fill-rule="evenodd" points="403.525,251.35 413.58,246.462 411.025,251.434 413.469,256.461 "/>
    </g>
    <g>
      <line style="fill: none; stroke-opacity: 1; stroke-width: 2; stroke: #000000" x1="372.182" y1="270.994" x2="372.573" y2="314.062"/>
      <polygon style="fill: #000000; fill-opacity: 1; stroke-opacity: 1; stroke-width: 2; stroke: #000000" fill-rule="evenodd" points="372.642,321.562 367.551,311.608 372.573,314.062 377.55,311.517 "/>
    </g>
    <g>
      <rect style="fill: #ffffff; fill-opacity: 1; stroke-opacity: 1; stroke-width: 2; stroke: #000000" x="92.874" y="343" width="46.25" height="38" rx="0" ry="0"/>
      <text font-size="12.8" style="fill: #000000; fill-opacity: 1; stroke: none;text-anchor:middle;font-family:sans-serif;font-style:normal;font-weight:normal" x="115.999" y="365.9">
        <tspan x="115.999" y="365.9">Exit</tspan>
      </text>
    </g>
    <g>
      <line style="fill: none; stroke-opacity: 1; stroke-width: 2; stroke: #000000" x1="374.535" y1="397.603" x2="375.985" y2="432.194"/>
      <polygon style="fill: #000000; fill-opacity: 1; stroke-opacity: 1; stroke-width: 2; stroke: #000000" fill-rule="evenodd" points="376.299,439.687 370.884,429.905 375.985,432.194 380.876,429.486 "/>
    </g>
    <g>
      <line style="fill: none; stroke-opacity: 1; stroke-width: 2; stroke: #000000" x1="299.262" y1="361.286" x2="149.845" y2="361.868"/>
      <polygon style="fill: #000000; fill-opacity: 1; stroke-opacity: 1; stroke-width: 2; stroke: #000000" fill-rule="evenodd" points="142.345,361.897 152.325,356.858 149.845,361.868 152.364,366.858 "/>
    </g>
    <g>
      <line style="fill: none; stroke-opacity: 1; stroke-width: 2; stroke: #000000" x1="377.999" y1="519.381" x2="377.999" y2="566.332"/>
      <polygon style="fill: #000000; fill-opacity: 1; stroke-opacity: 1; stroke-width: 2; stroke: #000000" fill-rule="evenodd" points="377.999,573.832 372.999,563.832 377.999,566.332 382.999,563.832 "/>
    </g>
    <g>
      <rect style="fill: #ffffff; fill-opacity: 1; stroke-opacity: 1; stroke-width: 2; stroke: #000000" x="638.176" y="1047.25" width="93.65" height="38" rx="0" ry="0"/>
      <text font-size="12.8" style="fill: #000000; fill-opacity: 1; stroke: none;text-anchor:middle;font-family:sans-serif;font-style:normal;font-weight:normal" x="685.001" y="1070.15">
        <tspan x="685.001" y="1070.15">Grab 1 loot</tspan>
      </text>
    </g>
    <g>
      <line style="fill: none; stroke-opacity: 1; stroke-width: 2; stroke: #000000" x1="682.884" y1="1174.53" x2="684.42" y2="1095.96"/>
      <polygon style="fill: #000000; fill-opacity: 1; stroke-opacity: 1; stroke-width: 2; stroke: #000000" fill-rule="evenodd" points="684.567,1088.46 689.37,1098.56 684.42,1095.96 679.372,1098.36 "/>
    </g>
    <g>
      <polygon style="fill: #ffffff; fill-opacity: 1; stroke-opacity: 1; stroke-width: 2; stroke: #000000" fill-rule="evenodd" points="377.999,442.118 454.262,480.25 377.999,518.381 301.736,480.25 "/>
      <text font-size="12.8" style="fill: #000000; fill-opacity: 1; stroke: none;text-anchor:middle;font-family:sans-serif;font-style:normal;font-weight:normal" x="377.999" y="484.15">
        <tspan x="377.999" y="484.15">Is level up?</tspan>
      </text>
    </g>
    <g>
      <rect style="fill: #ffffff; fill-opacity: 1; stroke-opacity: 1; stroke-width: 2; stroke: #000000" x="614.9" y="463.25" width="76.2" height="38" rx="0" ry="0"/>
      <text font-size="12.8" style="fill: #000000; fill-opacity: 1; stroke: none;text-anchor:middle;font-family:sans-serif;font-style:normal;font-weight:normal" x="653" y="486.15">
        <tspan x="653" y="486.15">Level up</tspan>
      </text>
    </g>
    <g>
      <line style="fill: none; stroke-opacity: 1; stroke-width: 2; stroke: #000000" x1="455.108" y1="480.811" x2="604.173" y2="481.895"/>
      <polygon style="fill: #000000; fill-opacity: 1; stroke-opacity: 1; stroke-width: 2; stroke: #000000" fill-rule="evenodd" points="611.672,481.949 601.636,486.877 604.173,481.895 601.709,476.877 "/>
    </g>
    <g>
      <path style="fill: none; stroke-opacity: 1; stroke-width: 2; stroke: #000000" d="M 613.9,481.972 A 122.375,122.375 0 0 1 462.708,486.876"/>
      <polygon style="fill: #000000; fill-opacity: 1; stroke-opacity: 1; stroke-width: 2; stroke: #000000" fill-rule="evenodd" points="456.807,482.28 467.641,485.042 462.479,487.188 461.098,492.605 "/>
    </g>
    <g>
      <rect style="fill: #ffffff; fill-opacity: 1; stroke-opacity: 1; stroke-width: 2; stroke: #000000" x="245.15" y="728.5" width="267.7" height="54" rx="0" ry="0"/>
      <text font-size="12.8" style="fill: #000000; fill-opacity: 1; stroke: none;text-anchor:middle;font-family:sans-serif;font-style:normal;font-weight:normal" x="379" y="751.4">
        <tspan x="379" y="751.4">Update potions and PA counters</tspan>
        <tspan x="379" y="767.4">from profile page</tspan>
      </text>
    </g>
    <g>
      <polygon style="fill: #ffffff; fill-opacity: 1; stroke-opacity: 1; stroke-width: 2; stroke: #000000" fill-rule="evenodd" points="376.999,829.668 472.662,877.5 376.999,925.331 281.336,877.5 "/>
      <text font-size="12.8" style="fill: #000000; fill-opacity: 1; stroke: none;text-anchor:middle;font-family:sans-serif;font-style:normal;font-weight:normal" x="376.999" y="881.4">
        <tspan x="376.999" y="881.4">Need potion?</tspan>
      </text>
    </g>
    <g>
      <line style="fill: none; stroke-opacity: 1; stroke-width: 2; stroke: #000000" x1="378.541" y1="783.505" x2="377.953" y2="819.327"/>
      <polygon style="fill: #000000; fill-opacity: 1; stroke-opacity: 1; stroke-width: 2; stroke: #000000" fill-rule="evenodd" points="377.83,826.826 372.995,816.745 377.953,819.327 382.994,816.909 "/>
    </g>
    <g>
      <rect style="fill: #ffffff; fill-opacity: 1; stroke-opacity: 1; stroke-width: 2; stroke: #000000" x="567.35" y="857.5" width="107.35" height="38" rx="0" ry="0"/>
      <text font-size="12.8" style="fill: #000000; fill-opacity: 1; stroke: none;text-anchor:middle;font-family:sans-serif;font-style:normal;font-weight:normal" x="621.025" y="880.4">
        <tspan x="621.025" y="880.4">Drink potions</tspan>
      </text>
    </g>
    <g>
      <polygon style="fill: #ffffff; fill-opacity: 1; stroke-opacity: 1; stroke-width: 2; stroke: #000000" fill-rule="evenodd" points="376.999,997.694 461.112,1039.75 376.999,1081.81 292.886,1039.75 "/>
      <text font-size="12.8" style="fill: #000000; fill-opacity: 1; stroke: none;text-anchor:middle;font-family:sans-serif;font-style:normal;font-weight:normal" x="376.999" y="1043.65">
        <tspan x="376.999" y="1043.65">Enough PAs?</tspan>
      </text>
    </g>
    <g>
      <line style="fill: none; stroke-opacity: 1; stroke-width: 2; stroke: #000000" x1="473.662" y1="877.104" x2="556.657" y2="876.764"/>
      <polygon style="fill: #000000; fill-opacity: 1; stroke-opacity: 1; stroke-width: 2; stroke: #000000" fill-rule="evenodd" points="564.157,876.733 554.178,881.774 556.657,876.764 554.137,871.774 "/>
    </g>
    <g>
      <line style="fill: none; stroke-opacity: 1; stroke-width: 2; stroke: #000000" x1="376.999" y1="926.331" x2="376.999" y2="986.958"/>
      <polygon style="fill: #000000; fill-opacity: 1; stroke-opacity: 1; stroke-width: 2; stroke: #000000" fill-rule="evenodd" points="376.999,994.458 371.999,984.458 376.999,986.958 381.999,984.458 "/>
    </g>
    <g>
      <rect style="fill: #ffffff; fill-opacity: 1; stroke-opacity: 1; stroke-width: 2; stroke: #000000" x="141.875" y="1020.75" width="46.25" height="38" rx="0" ry="0"/>
      <text font-size="12.8" style="fill: #000000; fill-opacity: 1; stroke: none;text-anchor:middle;font-family:sans-serif;font-style:normal;font-weight:normal" x="165" y="1043.65">
        <tspan x="165" y="1043.65">Exit</tspan>
      </text>
    </g>
    <g>
      <line style="fill: none; stroke-opacity: 1; stroke-width: 2; stroke: #000000" x1="291.886" y1="1039.75" x2="198.868" y2="1039.75"/>
      <polygon style="fill: #000000; fill-opacity: 1; stroke-opacity: 1; stroke-width: 2; stroke: #000000" fill-rule="evenodd" points="191.368,1039.75 201.368,1034.75 198.868,1039.75 201.368,1044.75 "/>
    </g>
    <text font-size="12.8" style="fill: #000000; fill-opacity: 1; stroke: none;text-anchor:start;font-family:sans-serif;font-style:normal;font-weight:normal" x="353.264" y="528.25">
      <tspan x="353.264" y="528.25">No</tspan>
    </text>
    <text font-size="12.8" style="fill: #000000; fill-opacity: 1; stroke: none;text-anchor:start;font-family:sans-serif;font-style:normal;font-weight:normal" x="453.5" y="473.338">
      <tspan x="453.5" y="473.338">Yes</tspan>
    </text>
    <text font-size="12.8" style="fill: #000000; fill-opacity: 1; stroke: none;text-anchor:start;font-family:sans-serif;font-style:normal;font-weight:normal" x="283.5" y="357.338">
      <tspan x="283.5" y="357.338">No</tspan>
    </text>
    <text font-size="12.8" style="fill: #000000; fill-opacity: 1; stroke: none;text-anchor:start;font-family:sans-serif;font-style:normal;font-weight:normal" x="381.5" y="406.338">
      <tspan x="381.5" y="406.338">Yes</tspan>
    </text>
    <g>
      <polygon style="fill: #ffffff; fill-opacity: 1; stroke-opacity: 1; stroke-width: 2; stroke: #000000" fill-rule="evenodd" points="374.999,1174.84 478.812,1226.74 374.999,1278.65 271.186,1226.74 "/>
      <text font-size="12.8" style="fill: #000000; fill-opacity: 1; stroke: none;text-anchor:middle;font-family:sans-serif;font-style:normal;font-weight:normal" x="374.999" y="1230.64">
        <tspan x="374.999" y="1230.64">Is monster present?</tspan>
      </text>
    </g>
    <g>
      <rect style="fill: #ffffff; fill-opacity: 1; stroke-opacity: 1; stroke-width: 2; stroke: #000000" x="313.926" y="1355.25" width="120.15" height="38" rx="0" ry="0"/>
      <text font-size="12.8" style="fill: #000000; fill-opacity: 1; stroke: none;text-anchor:middle;font-family:sans-serif;font-style:normal;font-weight:normal" x="374.001" y="1378.15">
        <tspan x="374.001" y="1378.15">Attack monster</tspan>
      </text>
    </g>
    <g>
      <polygon style="fill: #ffffff; fill-opacity: 1; stroke-opacity: 1; stroke-width: 2; stroke: #000000" fill-rule="evenodd" points="682,1175.07 771.338,1219.74 682,1264.41 592.662,1219.74 "/>
      <text font-size="12.8" style="fill: #000000; fill-opacity: 1; stroke: none;text-anchor:middle;font-family:sans-serif;font-style:normal;font-weight:normal" x="682" y="1223.64">
        <tspan x="682" y="1223.64">Is loot present?</tspan>
      </text>
    </g>
    <g>
      <line style="fill: none; stroke-opacity: 1; stroke-width: 2; stroke: #000000" x1="481.458" y1="1222.42" x2="583.292" y2="1221.06"/>
      <polygon style="fill: #000000; fill-opacity: 1; stroke-opacity: 1; stroke-width: 2; stroke: #000000" fill-rule="evenodd" points="590.791,1220.96 580.858,1226.09 583.292,1221.06 580.725,1216.09 "/>
    </g>
    <g>
      <line style="fill: none; stroke-opacity: 1; stroke-width: 2; stroke: #000000" x1="374.642" y1="1279.47" x2="374.202" y2="1344.52"/>
      <polygon style="fill: #000000; fill-opacity: 1; stroke-opacity: 1; stroke-width: 2; stroke: #000000" fill-rule="evenodd" points="374.151,1352.02 369.219,1341.98 374.202,1344.52 379.219,1342.05 "/>
    </g>
    <text font-size="12.8" style="fill: #000000; fill-opacity: 1; stroke: none;text-anchor:start;font-family:sans-serif;font-style:normal;font-weight:normal" x="481.5" y="1218.34">
      <tspan x="481.5" y="1218.34">No</tspan>
    </text>
    <text font-size="12.8" style="fill: #000000; fill-opacity: 1; stroke: none;text-anchor:start;font-family:sans-serif;font-style:normal;font-weight:normal" x="345.5" y="1291.34">
      <tspan x="345.5" y="1291.34">Yes</tspan>
    </text>
    <text font-size="12.8" style="fill: #000000; fill-opacity: 1; stroke: none;text-anchor:start;font-family:sans-serif;font-style:normal;font-weight:normal" x="677.5" y="1239.34">
      <tspan x="677.5" y="1239.34">No</tspan>
    </text>
    <text font-size="12.8" style="fill: #000000; fill-opacity: 1; stroke: none;text-anchor:start;font-family:sans-serif;font-style:normal;font-weight:normal" x="688.5" y="1173.34">
      <tspan x="688.5" y="1173.34">Yes</tspan>
    </text>
    <g>
      <line style="fill: none; stroke-opacity: 1; stroke-width: 2; stroke: #000000" x1="376.541" y1="1082.58" x2="375.666" y2="1164.39"/>
      <polygon style="fill: #000000; fill-opacity: 1; stroke-opacity: 1; stroke-width: 2; stroke: #000000" fill-rule="evenodd" points="375.586,1171.89 370.693,1161.84 375.666,1164.39 380.693,1161.95 "/>
    </g>
    <g>
      <path style="fill: none; stroke-opacity: 1; stroke-width: 2; stroke: #000000" d="M 771.338,1219.74 A 403.524,403.524 0 0 0 484.979,627.254"/>
      <polygon style="fill: #000000; fill-opacity: 1; stroke-opacity: 1; stroke-width: 2; stroke: #000000" fill-rule="evenodd" points="477.575,626.069 488.186,622.546 484.999,627.138 486.76,632.443 "/>
    </g>
    <text font-size="12.8" style="fill: #000000; fill-opacity: 1; stroke: none;text-anchor:start;font-family:sans-serif;font-style:normal;font-weight:normal" x="472.55" y="868.788">
      <tspan x="472.55" y="868.788">Yes</tspan>
    </text>
    <text font-size="12.8" style="fill: #000000; fill-opacity: 1; stroke: none;text-anchor:start;font-family:sans-serif;font-style:normal;font-weight:normal" x="383.55" y="1092.79">
      <tspan x="383.55" y="1092.79">Yes</tspan>
    </text>
    <text font-size="12.8" style="fill: #000000; fill-opacity: 1; stroke: none;text-anchor:start;font-family:sans-serif;font-style:normal;font-weight:normal" x="352.55" y="935.788">
      <tspan x="352.55" y="935.788">No</tspan>
    </text>
    <text font-size="12.8" style="fill: #000000; fill-opacity: 1; stroke: none;text-anchor:start;font-family:sans-serif;font-style:normal;font-weight:normal" x="272.55" y="1005.79">
      <tspan x="272.55" y="1005.79">No</tspan>
    </text>
    <g>
      <polygon style="fill: #ffffff; fill-opacity: 1; stroke-opacity: 1; stroke-width: 2; stroke: #000000" fill-rule="evenodd" points="374.66,1573.1 469.608,1623.05 374.66,1672.99 279.712,1623.05 "/>
      <text font-size="12.8" style="fill: #000000; fill-opacity: 1; stroke: none;text-anchor:middle;font-family:sans-serif;font-style:normal;font-weight:normal" x="374.66" y="1626.95">
        <tspan x="374.66" y="1626.95">Is monster killed?</tspan>
      </text>
    </g>
    <g>
      <polygon style="fill: #ffffff; fill-opacity: 1; stroke-opacity: 1; stroke-width: 2; stroke: #000000" fill-rule="evenodd" points="374.249,1450.48 444.962,1485.84 374.249,1521.2 303.536,1485.84 "/>
      <text font-size="12.8" style="fill: #000000; fill-opacity: 1; stroke: none;text-anchor:middle;font-family:sans-serif;font-style:normal;font-weight:normal" x="374.249" y="1489.74">
        <tspan x="374.249" y="1489.74">Level up?</tspan>
      </text>
    </g>
    <g>
      <line style="fill: none; stroke-opacity: 1; stroke-width: 2; stroke: #000000" x1="374.045" y1="1394.25" x2="374.147" y2="1439.78"/>
      <polygon style="fill: #000000; fill-opacity: 1; stroke-opacity: 1; stroke-width: 2; stroke: #000000" fill-rule="evenodd" points="374.163,1447.28 369.141,1437.29 374.147,1439.78 379.141,1437.27 "/>
    </g>
    <g>
      <line style="fill: none; stroke-opacity: 1; stroke-width: 2; stroke: #000000" x1="374.358" y1="1522.08" x2="374.479" y2="1562.45"/>
      <polygon style="fill: #000000; fill-opacity: 1; stroke-opacity: 1; stroke-width: 2; stroke: #000000" fill-rule="evenodd" points="374.501,1569.95 369.471,1559.96 374.479,1562.45 379.471,1559.93 "/>
    </g>
    <g>
      <path style="fill: none; stroke-opacity: 1; stroke-width: 2; stroke: #000000" d="M 611.75,1486.8 A 449.232,449.232 0 0 0 485.05,626.703"/>
      <polygon style="fill: #000000; fill-opacity: 1; stroke-opacity: 1; stroke-width: 2; stroke: #000000" fill-rule="evenodd" points="477.59,625.945 487.987,621.835 485.061,626.598 487.116,631.797 "/>
    </g>
    <g>
      <path style="fill: none; stroke-opacity: 1; stroke-width: 2; stroke: #000000" d="M 279.712,1623.05 A 694.086,694.086 0 0 1 273.683,632.564"/>
      <polygon style="fill: #000000; fill-opacity: 1; stroke-opacity: 1; stroke-width: 2; stroke: #000000" fill-rule="evenodd" points="279.028,627.304 275.312,637.849 273.635,632.516 268.363,630.658 "/>
    </g>
    <g>
      <path style="fill: none; stroke-opacity: 1; stroke-width: 2; stroke: #000000" d="M 350.924,1585.59 A 111.561,111.561 0 0 1 305.382,1378.86"/>
      <polygon style="fill: #000000; fill-opacity: 1; stroke-opacity: 1; stroke-width: 2; stroke: #000000" fill-rule="evenodd" points="311.914,1375.23 305.096,1384.09 305.165,1378.5 300.734,1375.09 "/>
    </g>
    <g>
      <path style="fill: #ffffff; fill-opacity: 1; stroke-opacity: 1; stroke-width: 2; stroke: #000000" fill-rule="evenodd" d="M 252.958 1177.84 L 343.541,1177.84 L 325.425,1199.84 L 271.075,1199.84 L 252.958,1177.84z"/>
      <text font-size="12.8" style="fill: #000000; fill-opacity: 1; stroke: none;text-anchor:middle;font-family:sans-serif;font-style:normal;font-weight:normal" x="298.25" y="1192.84">
        <tspan x="298.25" y="1192.84">Refresh</tspan>
      </text>
    </g>
    <g>
      <polygon style="fill: #ffffff; fill-opacity: 1; stroke-opacity: 1; stroke-width: 2; stroke: #000000" fill-rule="evenodd" points="377.999,577.068 475.362,625.75 377.999,674.431 280.636,625.75 "/>
      <text font-size="12.8" style="fill: #000000; fill-opacity: 1; stroke: none;text-anchor:middle;font-family:sans-serif;font-style:normal;font-weight:normal" x="377.999" y="629.65">
        <tspan x="377.999" y="629.65">Is player present?</tspan>
      </text>
    </g>
    <g>
      <line style="fill: none; stroke-opacity: 1; stroke-width: 2; stroke: #000000" x1="378.381" y1="675.238" x2="378.709" y2="717.825"/>
      <polygon style="fill: #000000; fill-opacity: 1; stroke-opacity: 1; stroke-width: 2; stroke: #000000" fill-rule="evenodd" points="378.767,725.325 373.69,715.363 378.709,717.825 383.69,715.286 "/>
    </g>
    <g>
      <path style="fill: none; stroke-opacity: 1; stroke-width: 2; stroke: #000000" d="M 609.416,856.504 A 206.252,206.252 0 0 0 484.453,629.218"/>
      <polygon style="fill: #000000; fill-opacity: 1; stroke-opacity: 1; stroke-width: 2; stroke: #000000" fill-rule="evenodd" points="477.471,626.498 488.568,625.129 484.54,629.006 485.224,634.554 "/>
    </g>
    <text font-size="12.8" style="fill: #000000; fill-opacity: 1; stroke: none;text-anchor:start;font-family:sans-serif;font-style:normal;font-weight:normal" x="308.596" y="1594.31">
      <tspan x="308.596" y="1594.31">No</tspan>
    </text>
    <text font-size="12.8" style="fill: #000000; fill-opacity: 1; stroke: none;text-anchor:start;font-family:sans-serif;font-style:normal;font-weight:normal" x="249.596" y="1628.31">
      <tspan x="249.596" y="1628.31">Yes</tspan>
    </text>
    <text font-size="12.8" style="fill: #000000; fill-opacity: 1; stroke: none;text-anchor:start;font-family:sans-serif;font-style:normal;font-weight:normal" x="439.896" y="1475.51">
      <tspan x="439.896" y="1475.51">Yes</tspan>
    </text>
    <text font-size="12.8" style="fill: #000000; fill-opacity: 1; stroke: none;text-anchor:start;font-family:sans-serif;font-style:normal;font-weight:normal" x="380.896" y="1532.51">
      <tspan x="380.896" y="1532.51">No</tspan>
    </text>
    <text font-size="12.8" style="fill: #000000; fill-opacity: 1; stroke: none;text-anchor:start;font-family:sans-serif;font-style:normal;font-weight:normal" x="322.596" y="588.306">
      <tspan x="322.596" y="588.306">Yes</tspan>
    </text>
    <text font-size="12.8" style="fill: #000000; fill-opacity: 1; stroke: none;text-anchor:start;font-family:sans-serif;font-style:normal;font-weight:normal" x="385.896" y="686.506">
      <tspan x="385.896" y="686.506">No</tspan>
    </text>
    <g>
      <rect style="fill: #ffffff; fill-opacity: 1; stroke-opacity: 1; stroke-width: 2; stroke: #000000" x="68.1706" y="464.306" width="94.85" height="38" rx="0" ry="0"/>
      <text font-size="12.8" style="fill: #000000; fill-opacity: 1; stroke: none;text-anchor:middle;font-family:sans-serif;font-style:normal;font-weight:normal" x="115.596" y="487.206">
        <tspan x="115.596" y="487.206">Go to sleep</tspan>
      </text>
    </g>
    <g>
      <line style="fill: none; stroke-opacity: 1; stroke-width: 2; stroke: #000000" x1="335.263" y1="597.433" x2="171.137" y2="488.684"/>
      <polygon style="fill: #000000; fill-opacity: 1; stroke-opacity: 1; stroke-width: 2; stroke: #000000" fill-rule="evenodd" points="164.885,484.541 175.982,485.896 171.137,488.684 170.459,494.233 "/>
    </g>
    <g>
      <polygon style="fill: #ffffff; fill-opacity: 1; stroke-opacity: 1; stroke-width: 2; stroke: #000000" fill-rule="evenodd" points="-85.4044,446 -16.7912,480.307 -85.4044,514.613 -154.018,480.307 "/>
      <text font-size="12.8" style="fill: #000000; fill-opacity: 1; stroke: none;text-anchor:middle;font-family:sans-serif;font-style:normal;font-weight:normal" x="-85.4044" y="484.207">
        <tspan x="-85.4044" y="484.207">Is camp?</tspan>
      </text>
    </g>
    <g>
      <line style="fill: none; stroke-opacity: 1; stroke-width: 2; stroke: #000000" x1="-55.0566" y1="460.168" x2="84.7617" y2="367.383"/>
      <polygon style="fill: #000000; fill-opacity: 1; stroke-opacity: 1; stroke-width: 2; stroke: #000000" fill-rule="evenodd" points="91.0109,363.236 85.4433,372.932 84.7617,367.383 79.9139,364.6 "/>
    </g>
    <g>
      <line style="fill: none; stroke-opacity: 1; stroke-width: 2; stroke: #000000" x1="67.1858" y1="482.584" x2="-7.11546" y2="481.475"/>
      <polygon style="fill: #000000; fill-opacity: 1; stroke-opacity: 1; stroke-width: 2; stroke: #000000" fill-rule="evenodd" points="-14.6146,481.363 -4.54113,476.513 -7.11546,481.475 -4.69034,486.512 "/>
    </g>
    <g>
      <rect style="fill: #ffffff; fill-opacity: 1; stroke-opacity: 1; stroke-width: 2; stroke: #000000" x="-128.004" y="602.306" width="91.2" height="38" rx="0" ry="0"/>
      <text font-size="12.8" style="fill: #000000; fill-opacity: 1; stroke: none;text-anchor:middle;font-family:sans-serif;font-style:normal;font-weight:normal" x="-82.4044" y="625.206">
        <tspan x="-82.4044" y="625.206">Wait X min</tspan>
      </text>
    </g>
    <g>
      <rect style="fill: #ffffff; fill-opacity: 1; stroke-opacity: 1; stroke-width: 2; stroke: #000000" x="65.7206" y="603.306" width="99.75" height="38" rx="0" ry="0"/>
      <text font-size="12.8" style="fill: #000000; fill-opacity: 1; stroke: none;text-anchor:middle;font-family:sans-serif;font-style:normal;font-weight:normal" x="115.596" y="626.206">
        <tspan x="115.596" y="626.206">Leave camp</tspan>
      </text>
    </g>
    <g>
      <line style="fill: none; stroke-opacity: 1; stroke-width: 2; stroke: #000000" x1="-84.6614" y1="515.229" x2="-83.0367" y2="591.589"/>
      <polygon style="fill: #000000; fill-opacity: 1; stroke-opacity: 1; stroke-width: 2; stroke: #000000" fill-rule="evenodd" points="-82.8771,599.087 -88.0887,589.196 -83.0367,591.589 -78.091,588.983 "/>
    </g>
    <g>
      <line style="fill: none; stroke-opacity: 1; stroke-width: 2; stroke: #000000" x1="-35.7987" y1="621.541" x2="54.9941" y2="622"/>
      <polygon style="fill: #000000; fill-opacity: 1; stroke-opacity: 1; stroke-width: 2; stroke: #000000" fill-rule="evenodd" points="62.494,622.038 52.4688,626.987 54.9941,622 52.5193,616.987 "/>
    </g>
    <g>
      <line style="fill: none; stroke-opacity: 1; stroke-width: 2; stroke: #000000" x1="166.47" y1="622.974" x2="271.448" y2="624.351"/>
      <polygon style="fill: #000000; fill-opacity: 1; stroke-opacity: 1; stroke-width: 2; stroke: #000000" fill-rule="evenodd" points="278.948,624.45 268.883,629.318 271.448,624.351 269.014,619.319 "/>
    </g>
    <text font-size="12.8" style="fill: #000000; fill-opacity: 1; stroke: none;text-anchor:start;font-family:sans-serif;font-style:normal;font-weight:normal" x="-63.1044" y="451.506">
      <tspan x="-63.1044" y="451.506">No</tspan>
    </text>
    <text font-size="12.8" style="fill: #000000; fill-opacity: 1; stroke: none;text-anchor:start;font-family:sans-serif;font-style:normal;font-weight:normal" x="-78.1044" y="529.506">
      <tspan x="-78.1044" y="529.506">Yes</tspan>
    </text>
    <g>
      <ellipse style="fill: #ffffff; fill-opacity: 1; stroke-opacity: 1; stroke-width: 2; stroke: #000000" cx="713.029" cy="255.024" rx="19.5673" ry="19.0336"/>
      <text font-size="12.8" style="fill: #000000; fill-opacity: 1; stroke: none;text-anchor:middle;font-family:sans-serif;font-style:normal;font-weight:normal" x="713.029" y="258.924">
        <tspan x="713.029" y="258.924"></tspan>
      </text>
    </g>
    <g>
      <line style="fill: none; stroke-opacity: 1; stroke-width: 2; stroke: #000000" x1="692.458" y1="254.765" x2="604.44" y2="253.659"/>
      <polygon style="fill: #000000; fill-opacity: 1; stroke-opacity: 1; stroke-width: 2; stroke: #000000" fill-rule="evenodd" points="596.94,253.565 607.003,248.691 604.44,253.659 606.877,258.69 "/>
    </g>
    <g>
      <ellipse style="fill: #000000; fill-opacity: 1; stroke-opacity: 1; stroke-width: 2; stroke: #000000" cx="164.291" cy="1137.36" rx="18.8294" ry="17.618"/>
      <text font-size="12.8" style="fill: #000000; fill-opacity: 1; stroke: none;text-anchor:middle;font-family:sans-serif;font-style:normal;font-weight:normal" x="164.291" y="1141.26">
        <tspan x="164.291" y="1141.26"></tspan>
      </text>
    </g>
    <g>
      <line style="fill: none; stroke-opacity: 1; stroke-width: 2; stroke: #000000" x1="164.855" y1="1059.67" x2="164.497" y2="1109.01"/>
      <polygon style="fill: #000000; fill-opacity: 1; stroke-opacity: 1; stroke-width: 2; stroke: #000000" fill-rule="evenodd" points="164.442,1116.51 159.515,1106.47 164.497,1109.01 169.515,1106.55 "/>
    </g>
    <g>
      <ellipse style="fill: #000000; fill-opacity: 1; stroke-opacity: 1; stroke-width: 2; stroke: #000000" cx="114.725" cy="256.724" rx="18.8294" ry="17.618"/>
      <text font-size="12.8" style="fill: #000000; fill-opacity: 1; stroke: none;text-anchor:middle;font-family:sans-serif;font-style:normal;font-weight:normal" x="114.725" y="260.624">
        <tspan x="114.725" y="260.624"></tspan>
      </text>
    </g>
    <g>
      <line style="fill: none; stroke-opacity: 1; stroke-width: 2; stroke: #000000" x1="115.757" y1="341.997" x2="115.068" y2="285.081"/>
      <polygon style="fill: #000000; fill-opacity: 1; stroke-opacity: 1; stroke-width: 2; stroke: #000000" fill-rule="evenodd" points="114.977,277.581 120.098,287.52 115.068,285.081 110.099,287.641 "/>
    </g>
    <g>
      <rect style="fill: #ffffff; fill-opacity: 1; stroke-opacity: 1; stroke-width: 2; stroke: #000000" x="535.55" y="1467.8" width="76.2" height="38" rx="0" ry="0"/>
      <text font-size="12.8" style="fill: #000000; fill-opacity: 1; stroke: none;text-anchor:middle;font-family:sans-serif;font-style:normal;font-weight:normal" x="573.65" y="1490.7">
        <tspan x="573.65" y="1490.7">Level up</tspan>
      </text>
    </g>
    <g>
      <line style="fill: none; stroke-opacity: 1; stroke-width: 2; stroke: #000000" x1="445.962" y1="1486.18" x2="524.81" y2="1486.56"/>
      <polygon style="fill: #000000; fill-opacity: 1; stroke-opacity: 1; stroke-width: 2; stroke: #000000" fill-rule="evenodd" points="532.31,1486.6 522.286,1491.55 524.81,1486.56 522.334,1481.55 "/>
    </g>
    <text font-size="12.8" style="fill: #000000; fill-opacity: 1; stroke: none;text-anchor:start;font-family:sans-serif;font-style:normal;font-weight:normal" x="780.3" y="1217.95">
      <tspan x="780.3" y="1217.95">No</tspan>
    </text>
    <g>
      <path style="fill: none; stroke-opacity: 1; stroke-width: 2; stroke: #000000" d="M 726.826,1048.25 A 319.828,319.828 0 0 0 479.973,628.286"/>
      <polygon style="fill: #000000; fill-opacity: 1; stroke-opacity: 1; stroke-width: 2; stroke: #000000" fill-rule="evenodd" points="472.575,627.069 483.187,623.548 479.998,628.14 481.759,633.445 "/>
    </g>
  </g>
</svg>
